<svg width="182px" height="46px" viewBox="0 0 64 16" fill="none" xmlns="http://www.w3.org/2000/svg" preserveAspectRatio="none">
<g clip-path="url(#clip0_4244_32419)">
<path fill-rule="evenodd" clip-rule="evenodd" d="M52.5577 15.3474C53.5556 15.7404 54.6223 15.9326 55.6957 15.9126H55.7792C56.8501 15.9331 57.9144 15.7412 58.9097 15.3481C59.905 14.955 60.8114 14.3686 61.5756 13.6233C62.3623 12.9065 62.9855 12.0308 63.4032 11.0551C63.821 10.0794 64.0237 9.02615 63.9978 7.96619C64.0213 6.909 63.8174 5.85899 63.3997 4.88631C62.982 3.91362 62.3602 3.04065 61.5756 2.32571C60.0003 0.832888 57.9065 0 55.7291 0C53.5516 0 51.4579 0.832888 49.8825 2.32571C49.1099 3.04819 48.4982 3.92332 48.0868 4.89478C47.6754 5.86624 47.4734 6.9125 47.4938 7.96619C47.47 9.0228 47.6704 10.0725 48.0819 11.0472C48.4935 12.0218 49.107 12.8995 49.8825 13.6233C50.6504 14.3683 51.5598 14.9544 52.5577 15.3474ZM60.5944 5.98517C60.8558 6.61284 60.9851 7.28702 60.9743 7.96619L60.8907 7.9496C60.9025 8.6363 60.7739 9.31823 60.5126 9.95412C60.2513 10.59 59.8628 11.1666 59.3706 11.6491C58.8928 12.1335 58.3204 12.5158 57.6884 12.7725C57.0564 13.0293 56.3783 13.1551 55.6957 13.1422C55.013 13.1551 54.3349 13.0293 53.7029 12.7725C53.071 12.5158 52.4985 12.1335 52.0207 11.6491C51.5509 11.1587 51.1836 10.5808 50.9399 9.94867C50.6962 9.31656 50.5809 8.64277 50.6008 7.96619C50.5878 7.28822 50.7145 6.61476 50.973 5.98715C51.2315 5.35954 51.6165 4.79102 52.1042 4.31647C52.5844 3.83294 53.1566 3.44899 53.7874 3.18693C54.4183 2.92487 55.0953 2.78992 55.7792 2.78992C56.463 2.78992 57.14 2.92487 57.7709 3.18693C58.4018 3.44899 58.974 3.83294 59.4542 4.31647C59.9449 4.7896 60.3329 5.35749 60.5944 5.98517Z" fill="#0B77B9"/>
<path fill-rule="evenodd" clip-rule="evenodd" d="M27.2615 14.6111C27.2759 14.4451 27.2542 14.2779 27.1978 14.121L22.1363 1.03173C21.9781 0.70667 21.7239 0.437248 21.4075 0.259403C21.0911 0.0815578 20.7277 0.00374657 20.3656 0.0363495C19.9748 -0.0440904 19.568 0.017083 19.2187 0.208796C18.8693 0.400508 18.6007 0.710089 18.4613 1.0815L13.45 14.1375C13.3926 14.2951 13.3718 14.4634 13.3892 14.63C13.4065 14.7967 13.4616 14.9572 13.5502 15.0997C13.7164 15.4339 14.0024 15.6943 14.352 15.8297C14.714 15.9575 15.1093 15.9575 15.4712 15.8297C15.6321 15.783 15.7809 15.7026 15.9077 15.5938C16.0346 15.4851 16.1363 15.3505 16.2062 15.1993L17.2085 12.9431H23.3891L24.4415 15.1827C24.5114 15.3339 24.6132 15.4685 24.74 15.5773C24.8668 15.686 25.0157 15.7665 25.1765 15.8131C25.5385 15.9409 25.9338 15.9409 26.2957 15.8131C26.6437 15.6685 26.9322 15.4113 27.1142 15.0832C27.1969 14.9381 27.2471 14.7771 27.2615 14.6111ZM20.4492 4.41601L22.4537 10.1229H18.2609L20.2821 4.41601H20.4492Z" fill="#0B77B9"/>
<path d="M5.71589 13.1586C4.41059 13.1875 3.13164 12.7913 2.07432 12.0305C1.94585 11.9379 1.79674 11.8774 1.63969 11.8543C1.48263 11.8312 1.32228 11.8461 1.17228 11.8978C0.825902 11.9818 0.515665 12.1736 0.286946 12.4453C0.0808733 12.7477 -0.0189459 13.1093 0.00297068 13.4738C0.00922722 13.6727 0.066131 13.8668 0.16837 14.038C0.270609 14.2091 0.414849 14.3518 0.587627 14.4526C2.11052 15.4885 3.92043 16.0277 5.76601 15.9954C7.26095 16.0512 8.72967 15.5943 9.92542 14.7014C10.4625 14.3019 10.8948 13.7797 11.1856 13.179C11.4763 12.5784 11.6171 11.9169 11.5959 11.2508C11.6292 10.6345 11.527 10.0185 11.2962 9.44545C11.0654 8.87245 10.7116 8.35627 10.2595 7.93287C9.22896 7.0517 7.94072 6.5225 6.58453 6.42322C5.66904 6.35445 4.77425 6.11823 3.94522 5.72645C3.74318 5.57869 3.58208 5.38254 3.47693 5.15628C3.37178 4.93003 3.326 4.68102 3.34386 4.43246C3.36822 4.19815 3.44931 3.97317 3.58021 3.77673C3.7111 3.58029 3.88792 3.41822 4.09556 3.30436C4.59411 2.99107 5.17644 2.83493 5.76601 2.85644C6.95218 2.88208 8.10823 3.23225 9.1069 3.86841C9.24972 3.93861 9.40692 3.97512 9.56627 3.97512C9.72562 3.97512 9.88283 3.93861 10.0256 3.86841C10.3599 3.74061 10.6379 3.49973 10.8108 3.18824C11.0023 2.88754 11.0738 2.52661 11.0112 2.17627C10.9821 2.01842 10.9212 1.86802 10.8322 1.73406C10.7432 1.60009 10.628 1.48531 10.4934 1.39656C9.07115 0.484369 7.40873 0.0110073 5.71589 0.0362047C4.31709 -0.013587 2.94521 0.426858 1.84046 1.28043C1.34233 1.64126 0.9394 2.11632 0.665998 2.66514C0.392595 3.21396 0.256821 3.82029 0.270242 4.43246C0.234434 5.00999 0.323206 5.58846 0.53062 6.12918C0.738035 6.66991 1.05931 7.16041 1.47296 7.5679C2.58184 8.45647 3.9427 8.97851 5.3651 9.06097C5.93368 9.12158 6.49385 9.24397 7.03555 9.42594C7.4072 9.52723 7.74652 9.72142 8.02111 9.98999C8.21574 10.1341 8.38027 10.3144 8.50554 10.5209C8.53428 10.7356 8.53428 10.9531 8.50554 11.1679C8.51656 11.4566 8.45146 11.7432 8.31668 11.9992C8.18191 12.2553 7.98213 12.4719 7.73713 12.6277C7.13296 13.0036 6.4282 13.1887 5.71589 13.1586Z" fill="#0B77B9"/>
<path d="M29.2858 1.42969C29.2847 1.23918 29.3315 1.0514 29.4219 0.883382C29.5123 0.715361 29.6435 0.572412 29.8037 0.467494C30.1663 0.186674 30.6133 0.0347946 31.0732 0.0361632C31.3771 0.00349208 31.6843 0.054277 31.9611 0.182986C32.238 0.311695 32.474 0.513393 32.6434 0.766107L37.1202 6.40658L41.6304 0.732928C41.8153 0.509232 42.051 0.332396 42.3182 0.217016C42.5854 0.101635 42.8764 0.0510186 43.1672 0.0693425C43.6235 0.0558693 44.071 0.196203 44.4368 0.467494C44.5928 0.575351 44.7199 0.719345 44.8072 0.887005C44.8946 1.05467 44.9394 1.24094 44.9379 1.42969V14.7014C44.9419 14.8718 44.9045 15.0407 44.8289 15.1937C44.7533 15.3468 44.6417 15.4795 44.5036 15.5807C44.2231 15.8267 43.8587 15.9572 43.4846 15.9456C43.1056 15.9565 42.7363 15.8263 42.4489 15.5807C42.3137 15.4768 42.2043 15.3435 42.129 15.1911C42.0537 15.0387 42.0146 14.8712 42.0146 14.7014V4.83057L38.4232 9.54203C38.2828 9.75051 38.0907 9.91957 37.8654 10.0329C37.6401 10.1462 37.3892 10.2 37.1369 10.189C36.8897 10.1974 36.6444 10.1423 36.4249 10.029C36.2054 9.9156 36.0191 9.74788 35.8841 9.54203L32.2759 4.83057V14.6682C32.276 14.838 32.2368 15.0055 32.1615 15.1579C32.0863 15.3103 31.9768 15.4436 31.8416 15.5475C31.5481 15.7748 31.1865 15.8983 30.8143 15.8983C30.4421 15.8983 30.0805 15.7748 29.787 15.5475C29.6488 15.4463 29.5372 15.3136 29.4616 15.1606C29.386 15.0075 29.3487 14.8386 29.3526 14.6682L29.2858 1.42969Z" fill="#0B77B9"/>
</g>
<defs>
<clipPath id="clip0_4244_32419">
<rect width="64" height="16" fill="white"/>
</clipPath>
</defs>
</svg>
