<svg width="316px" height="82px" viewBox="0 0 185 48" fill="none" xmlns="http://www.w3.org/2000/svg" preserveAspectRatio="none">
<path fill-rule="evenodd" clip-rule="evenodd" d="M28.8431 43.6152C28.8431 41.9562 27.4982 40.6113 25.8392 40.6113H22.1608C21.3641 40.6113 20.6001 40.9278 20.0367 41.4911C19.4734 42.0545 19.1569 42.8185 19.1569 43.6152C19.1569 45.2742 20.5018 46.6191 22.1608 46.6191H25.8392C27.4982 46.6191 28.8431 45.2742 28.8431 43.6152ZM6.31509 35.8693C6.81684 35.9076 7.42388 35.9297 8.03362 35.894C8.35847 37.5413 9.16547 39.0693 10.3701 40.274C11.9692 41.873 14.1382 42.7715 16.3997 42.7715H17.5459C17.4953 43.048 17.4694 43.3303 17.4694 43.6152C17.4694 43.9033 17.4953 44.1854 17.5451 44.459H16.3997C13.6906 44.459 11.0924 43.3828 9.17681 41.4672C7.64859 39.9389 6.65456 37.9762 6.31509 35.8693ZM5.45672 34.0737C4.12444 33.8491 2.88469 33.2157 1.91691 32.2478C0.689531 31.0205 0 29.3557 0 27.62V23.6315C0 21.8958 0.689531 20.231 1.91691 19.0037C3.14428 17.7763 4.809 17.0867 6.54478 17.0867H6.98044C7.67681 8.29705 15.0308 1.38083 24 1.38083C32.9692 1.38083 40.3232 8.29705 41.0196 17.0867H41.4552C43.191 17.0867 44.8557 17.7763 46.0831 19.0037C47.3105 20.231 48 21.8958 48 23.6315V27.62C48 29.3557 47.3105 31.0205 46.0831 32.2478C44.8557 33.4753 43.191 34.1648 41.4552 34.1648H39.5239C38.7229 34.1648 38.0736 33.5154 38.0736 32.7145V18.4544C38.0736 10.6818 31.7726 4.38083 24 4.38083C16.2274 4.38083 9.92644 10.6818 9.92644 18.4544V32.7145C9.92644 33.28 9.60272 33.7701 9.13041 34.0092C7.83028 34.4603 5.814 34.134 5.45672 34.0737Z" fill="#1F9AD6"/>
<path d="M65.1094 9.23145V10.228H60.1074V9.23145H65.1094ZM60.2979 5.25781V14.5H59.0728V5.25781H60.2979ZM66.1758 5.25781V14.5H64.957V5.25781H66.1758ZM67.8643 11.1421V10.9961C67.8643 10.501 67.9362 10.0418 68.0801 9.61865C68.224 9.19124 68.4313 8.82096 68.7021 8.50781C68.973 8.19043 69.3009 7.94499 69.686 7.77148C70.0711 7.59375 70.5028 7.50488 70.981 7.50488C71.4634 7.50488 71.8971 7.59375 72.2822 7.77148C72.6715 7.94499 73.0016 8.19043 73.2725 8.50781C73.5475 8.82096 73.757 9.19124 73.9009 9.61865C74.0448 10.0418 74.1167 10.501 74.1167 10.9961V11.1421C74.1167 11.6372 74.0448 12.0964 73.9009 12.5195C73.757 12.9427 73.5475 13.313 73.2725 13.6304C73.0016 13.9435 72.6737 14.189 72.2886 14.3667C71.9077 14.5402 71.4761 14.627 70.9937 14.627C70.5112 14.627 70.0775 14.5402 69.6924 14.3667C69.3073 14.189 68.9772 13.9435 68.7021 13.6304C68.4313 13.313 68.224 12.9427 68.0801 12.5195C67.9362 12.0964 67.8643 11.6372 67.8643 11.1421ZM69.0386 10.9961V11.1421C69.0386 11.4849 69.0788 11.8086 69.1592 12.1133C69.2396 12.4137 69.3602 12.6803 69.521 12.9131C69.686 13.1458 69.8913 13.3299 70.1367 13.4653C70.3822 13.5965 70.6678 13.6621 70.9937 13.6621C71.3153 13.6621 71.5967 13.5965 71.8379 13.4653C72.0833 13.3299 72.2865 13.1458 72.4473 12.9131C72.6081 12.6803 72.7287 12.4137 72.8091 12.1133C72.8937 11.8086 72.936 11.4849 72.936 11.1421V10.9961C72.936 10.6576 72.8937 10.3381 72.8091 10.0376C72.7287 9.73291 72.606 9.46419 72.4409 9.23145C72.2801 8.99447 72.077 8.80827 71.8315 8.67285C71.5903 8.53743 71.3068 8.46973 70.981 8.46973C70.6593 8.46973 70.3758 8.53743 70.1304 8.67285C69.8892 8.80827 69.686 8.99447 69.521 9.23145C69.3602 9.46419 69.2396 9.73291 69.1592 10.0376C69.0788 10.3381 69.0386 10.6576 69.0386 10.9961ZM78.4648 7.63184V8.5332H74.7515V7.63184H78.4648ZM76.0083 5.9624H77.1826V12.7988C77.1826 13.0316 77.2186 13.2072 77.2905 13.3257C77.3625 13.4442 77.4556 13.5225 77.5698 13.5605C77.6841 13.5986 77.8068 13.6177 77.938 13.6177C78.0353 13.6177 78.1369 13.6092 78.2427 13.5923C78.3527 13.5711 78.4352 13.5542 78.4902 13.5415L78.4966 14.5C78.4035 14.5296 78.2808 14.5571 78.1284 14.5825C77.9803 14.6121 77.8005 14.627 77.5889 14.627C77.3011 14.627 77.0366 14.5698 76.7954 14.4556C76.5542 14.3413 76.3617 14.1509 76.2178 13.8843C76.0781 13.6134 76.0083 13.2495 76.0083 12.7925V5.9624ZM81.1182 4.75V14.5H79.9375V4.75H81.1182ZM84.2793 7.63184V14.5H83.0986V7.63184H84.2793ZM83.0098 5.81006C83.0098 5.61963 83.0669 5.45882 83.1812 5.32764C83.2996 5.19645 83.4731 5.13086 83.7017 5.13086C83.9259 5.13086 84.0973 5.19645 84.2158 5.32764C84.3385 5.45882 84.3999 5.61963 84.3999 5.81006C84.3999 5.99202 84.3385 6.1486 84.2158 6.27979C84.0973 6.40674 83.9259 6.47021 83.7017 6.47021C83.4731 6.47021 83.2996 6.40674 83.1812 6.27979C83.0669 6.1486 83.0098 5.99202 83.0098 5.81006ZM87.3389 9.09814V14.5H86.1646V7.63184H87.2754L87.3389 9.09814ZM87.0596 10.8057L86.5708 10.7866C86.575 10.3169 86.6449 9.88314 86.7803 9.48535C86.9157 9.08333 87.1061 8.73421 87.3516 8.43799C87.597 8.14176 87.889 7.91325 88.2275 7.75244C88.5703 7.5874 88.9491 7.50488 89.3638 7.50488C89.7023 7.50488 90.007 7.55143 90.2778 7.64453C90.5487 7.7334 90.7793 7.87728 90.9697 8.07617C91.1644 8.27507 91.3125 8.5332 91.4141 8.85059C91.5156 9.16374 91.5664 9.54671 91.5664 9.99951V14.5H90.3857V9.98682C90.3857 9.62712 90.3328 9.33936 90.2271 9.12354C90.1213 8.90348 89.9668 8.74479 89.7637 8.64746C89.5605 8.5459 89.3109 8.49512 89.0146 8.49512C88.7227 8.49512 88.4561 8.55648 88.2148 8.6792C87.9779 8.80192 87.7726 8.97119 87.5991 9.18701C87.4299 9.40283 87.2965 9.65039 87.1992 9.92969C87.1061 10.2048 87.0596 10.4967 87.0596 10.8057ZM96.2002 14.627C95.722 14.627 95.2882 14.5465 94.8989 14.3857C94.5138 14.2207 94.1816 13.9901 93.9023 13.6938C93.6273 13.3976 93.4157 13.0464 93.2676 12.6401C93.1195 12.2339 93.0454 11.7896 93.0454 11.3071V11.0405C93.0454 10.4819 93.1279 9.9847 93.293 9.54883C93.458 9.10872 93.6823 8.73633 93.9658 8.43164C94.2493 8.12695 94.571 7.89632 94.9307 7.73975C95.2904 7.58317 95.6628 7.50488 96.0479 7.50488C96.5387 7.50488 96.9619 7.58952 97.3174 7.75879C97.6771 7.92806 97.9712 8.16504 98.1997 8.46973C98.4282 8.77018 98.5975 9.12565 98.7075 9.53613C98.8175 9.94238 98.8726 10.3867 98.8726 10.8691V11.396H93.7437V10.4375H97.6982V10.3486C97.6813 10.0439 97.6178 9.74772 97.5078 9.45996C97.402 9.1722 97.2327 8.93522 97 8.74902C96.7673 8.56283 96.4499 8.46973 96.0479 8.46973C95.7812 8.46973 95.5358 8.52686 95.3115 8.64111C95.0872 8.75114 94.8947 8.91618 94.7339 9.13623C94.5731 9.35628 94.4482 9.625 94.3594 9.94238C94.2705 10.2598 94.2261 10.6258 94.2261 11.0405V11.3071C94.2261 11.633 94.2705 11.9398 94.3594 12.2275C94.4525 12.5111 94.5858 12.7607 94.7593 12.9766C94.937 13.1924 95.1507 13.3617 95.4004 13.4844C95.6543 13.6071 95.9421 13.6685 96.2637 13.6685C96.6784 13.6685 97.0296 13.5838 97.3174 13.4146C97.6051 13.2453 97.8569 13.0189 98.0728 12.7354L98.7837 13.3003C98.6356 13.5246 98.4473 13.7383 98.2188 13.9414C97.9902 14.1445 97.7088 14.3096 97.3745 14.4365C97.0444 14.5635 96.653 14.627 96.2002 14.627Z" fill="#343434"/>
<path d="M66.6152 24.8271V40.5H63.5215V28.3936L59.8047 29.5752V27.1367L66.2822 24.8271H66.6152ZM73.8984 38.1475H74.1025C74.9619 38.1475 75.6995 38.0436 76.3154 37.8359C76.9385 37.6211 77.4505 37.3132 77.8516 36.9121C78.2526 36.5111 78.5498 36.0205 78.7432 35.4404C78.9365 34.8532 79.0332 34.1872 79.0332 33.4424V30.4775C79.0332 29.9118 78.9759 29.4141 78.8613 28.9844C78.7539 28.5547 78.5964 28.2002 78.3887 27.9209C78.1882 27.6344 77.9518 27.4196 77.6797 27.2764C77.4147 27.1331 77.1211 27.0615 76.7988 27.0615C76.4551 27.0615 76.1507 27.1475 75.8857 27.3193C75.6208 27.484 75.3952 27.7096 75.209 27.9961C75.0299 28.2826 74.8903 28.612 74.79 28.9844C74.6969 29.3496 74.6504 29.7327 74.6504 30.1338C74.6504 30.5348 74.6969 30.918 74.79 31.2832C74.8831 31.6413 75.0228 31.96 75.209 32.2393C75.3952 32.5114 75.6279 32.7298 75.9072 32.8945C76.1865 33.0521 76.516 33.1309 76.8955 33.1309C77.2607 33.1309 77.5866 33.0628 77.873 32.9268C78.1667 32.7835 78.4137 32.5973 78.6143 32.3682C78.8219 32.139 78.9795 31.8848 79.0869 31.6055C79.2015 31.3262 79.2588 31.0433 79.2588 30.7568L80.2793 31.3154C80.2793 31.8167 80.1719 32.3109 79.957 32.7979C79.7422 33.2848 79.4414 33.7288 79.0547 34.1299C78.6751 34.5238 78.2347 34.8389 77.7334 35.0752C77.2321 35.3115 76.695 35.4297 76.1221 35.4297C75.3916 35.4297 74.7435 35.2972 74.1777 35.0322C73.612 34.7601 73.1322 34.3877 72.7383 33.915C72.3516 33.4352 72.0579 32.8766 71.8574 32.2393C71.6569 31.6019 71.5566 30.9108 71.5566 30.166C71.5566 29.4069 71.6784 28.6943 71.9219 28.0283C72.1725 27.3623 72.527 26.7751 72.9854 26.2666C73.4508 25.7581 74.0059 25.3607 74.6504 25.0742C75.3021 24.7806 76.0254 24.6338 76.8203 24.6338C77.6152 24.6338 78.3385 24.7878 78.9902 25.0957C79.6419 25.4036 80.2005 25.8405 80.666 26.4062C81.1315 26.9648 81.4896 27.6344 81.7402 28.415C81.998 29.1956 82.127 30.0622 82.127 31.0146V32.0889C82.127 33.1058 82.016 34.0511 81.7939 34.9248C81.5791 35.7985 81.2533 36.5898 80.8164 37.2988C80.3867 38.0007 79.8496 38.6022 79.2051 39.1035C78.5677 39.6048 77.8265 39.988 76.9814 40.2529C76.1364 40.5179 75.1911 40.6504 74.1455 40.6504H73.8984V38.1475ZM94.8672 31.3047V34.0117C94.8672 35.1862 94.7419 36.1995 94.4912 37.0518C94.2406 37.8968 93.8789 38.5915 93.4062 39.1357C92.9408 39.6729 92.3857 40.0703 91.7412 40.3281C91.0967 40.5859 90.3805 40.7148 89.5928 40.7148C88.9626 40.7148 88.3753 40.6361 87.8311 40.4785C87.2868 40.3138 86.7962 40.0596 86.3594 39.7158C85.9297 39.3721 85.5573 38.9388 85.2422 38.416C84.9342 37.8861 84.6979 37.2559 84.5332 36.5254C84.3685 35.7949 84.2861 34.957 84.2861 34.0117V31.3047C84.2861 30.1302 84.4115 29.124 84.6621 28.2861C84.9199 27.4411 85.2816 26.75 85.7471 26.2129C86.2197 25.6758 86.7783 25.2819 87.4229 25.0312C88.0674 24.7734 88.7835 24.6445 89.5713 24.6445C90.2015 24.6445 90.7852 24.7269 91.3223 24.8916C91.8665 25.0492 92.3571 25.2962 92.7939 25.6328C93.2308 25.9694 93.6032 26.4027 93.9111 26.9326C94.2191 27.4554 94.4554 28.082 94.6201 28.8125C94.7848 29.5358 94.8672 30.3665 94.8672 31.3047ZM91.7627 34.4199V30.8857C91.7627 30.32 91.7305 29.8258 91.666 29.4033C91.6087 28.9808 91.5192 28.6227 91.3975 28.3291C91.2757 28.0283 91.1253 27.7848 90.9463 27.5986C90.7673 27.4124 90.5632 27.2764 90.334 27.1904C90.1048 27.1045 89.8506 27.0615 89.5713 27.0615C89.2204 27.0615 88.9089 27.1296 88.6367 27.2656C88.3717 27.4017 88.1462 27.6201 87.96 27.9209C87.7738 28.2145 87.6305 28.6084 87.5303 29.1025C87.4372 29.5895 87.3906 30.1839 87.3906 30.8857V34.4199C87.3906 34.9857 87.4193 35.4834 87.4766 35.9131C87.541 36.3428 87.6341 36.7116 87.7559 37.0195C87.8848 37.3203 88.0352 37.5674 88.207 37.7607C88.3861 37.9469 88.5902 38.083 88.8193 38.1689C89.0557 38.2549 89.3135 38.2979 89.5928 38.2979C89.9365 38.2979 90.2409 38.2298 90.5059 38.0938C90.778 37.9505 91.0072 37.7285 91.1934 37.4277C91.3867 37.1198 91.5299 36.7188 91.623 36.2246C91.7161 35.7305 91.7627 35.1289 91.7627 34.4199ZM107.5 31.3047V34.0117C107.5 35.1862 107.375 36.1995 107.124 37.0518C106.873 37.8968 106.512 38.5915 106.039 39.1357C105.574 39.6729 105.019 40.0703 104.374 40.3281C103.729 40.5859 103.013 40.7148 102.226 40.7148C101.595 40.7148 101.008 40.6361 100.464 40.4785C99.9196 40.3138 99.429 40.0596 98.9922 39.7158C98.5625 39.3721 98.1901 38.9388 97.875 38.416C97.5671 37.8861 97.3307 37.2559 97.166 36.5254C97.0013 35.7949 96.9189 34.957 96.9189 34.0117V31.3047C96.9189 30.1302 97.0443 29.124 97.2949 28.2861C97.5527 27.4411 97.9144 26.75 98.3799 26.2129C98.8525 25.6758 99.4111 25.2819 100.056 25.0312C100.7 24.7734 101.416 24.6445 102.204 24.6445C102.834 24.6445 103.418 24.7269 103.955 24.8916C104.499 25.0492 104.99 25.2962 105.427 25.6328C105.864 25.9694 106.236 26.4027 106.544 26.9326C106.852 27.4554 107.088 28.082 107.253 28.8125C107.418 29.5358 107.5 30.3665 107.5 31.3047ZM104.396 34.4199V30.8857C104.396 30.32 104.363 29.8258 104.299 29.4033C104.242 28.9808 104.152 28.6227 104.03 28.3291C103.909 28.0283 103.758 27.7848 103.579 27.5986C103.4 27.4124 103.196 27.2764 102.967 27.1904C102.738 27.1045 102.483 27.0615 102.204 27.0615C101.853 27.0615 101.542 27.1296 101.27 27.2656C101.005 27.4017 100.779 27.6201 100.593 27.9209C100.407 28.2145 100.263 28.6084 100.163 29.1025C100.07 29.5895 100.023 30.1839 100.023 30.8857V34.4199C100.023 34.9857 100.052 35.4834 100.109 35.9131C100.174 36.3428 100.267 36.7116 100.389 37.0195C100.518 37.3203 100.668 37.5674 100.84 37.7607C101.019 37.9469 101.223 38.083 101.452 38.1689C101.688 38.2549 101.946 38.2979 102.226 38.2979C102.569 38.2979 102.874 38.2298 103.139 38.0938C103.411 37.9505 103.64 37.7285 103.826 37.4277C104.02 37.1198 104.163 36.7188 104.256 36.2246C104.349 35.7305 104.396 35.1289 104.396 34.4199ZM117.587 24.6982H118.038V27.1689H117.855C117.039 27.1689 116.312 27.2907 115.675 27.5342C115.037 27.7777 114.497 28.125 114.053 28.5762C113.616 29.0202 113.279 29.5573 113.043 30.1875C112.814 30.8177 112.699 31.5231 112.699 32.3037V34.9033C112.699 35.4619 112.753 35.9561 112.86 36.3857C112.975 36.8083 113.136 37.1628 113.344 37.4492C113.559 37.7285 113.809 37.9398 114.096 38.083C114.382 38.2191 114.704 38.2871 115.062 38.2871C115.399 38.2871 115.703 38.2155 115.976 38.0723C116.255 37.929 116.491 37.7285 116.685 37.4707C116.885 37.2057 117.035 36.8978 117.136 36.5469C117.243 36.1888 117.297 35.7985 117.297 35.376C117.297 34.9535 117.243 34.5632 117.136 34.2051C117.035 33.847 116.885 33.5391 116.685 33.2812C116.484 33.0163 116.241 32.8122 115.954 32.6689C115.668 32.5257 115.345 32.4541 114.987 32.4541C114.5 32.4541 114.071 32.5687 113.698 32.7979C113.333 33.0199 113.047 33.3063 112.839 33.6572C112.631 34.0081 112.52 34.377 112.506 34.7637L111.571 34.1621C111.593 33.6107 111.707 33.0879 111.915 32.5938C112.13 32.0996 112.424 31.6628 112.796 31.2832C113.175 30.8965 113.63 30.5957 114.16 30.3809C114.69 30.1589 115.288 30.0479 115.954 30.0479C116.685 30.0479 117.326 30.1875 117.877 30.4668C118.436 30.7461 118.901 31.1292 119.273 31.6162C119.646 32.1032 119.925 32.6654 120.111 33.3027C120.298 33.9401 120.391 34.6204 120.391 35.3438C120.391 36.1029 120.265 36.8083 120.015 37.46C119.771 38.1117 119.417 38.681 118.951 39.168C118.493 39.6549 117.941 40.0345 117.297 40.3066C116.652 40.5788 115.929 40.7148 115.127 40.7148C114.296 40.7148 113.541 40.5645 112.86 40.2637C112.187 39.9557 111.607 39.526 111.12 38.9746C110.633 38.4232 110.257 37.7679 109.992 37.0088C109.734 36.2497 109.605 35.4189 109.605 34.5166V33.3135C109.605 32.0531 109.788 30.9001 110.153 29.8545C110.526 28.8018 111.059 27.8923 111.754 27.126C112.449 26.3525 113.286 25.7546 114.268 25.332C115.249 24.9095 116.355 24.6982 117.587 24.6982ZM125.407 31.3369H127.062C127.591 31.3369 128.028 31.2474 128.372 31.0684C128.716 30.8822 128.97 30.6243 129.135 30.2949C129.307 29.9583 129.393 29.568 129.393 29.124C129.393 28.723 129.314 28.3685 129.156 28.0605C129.006 27.7454 128.773 27.502 128.458 27.3301C128.143 27.151 127.745 27.0615 127.266 27.0615C126.886 27.0615 126.535 27.1367 126.213 27.2871C125.891 27.4375 125.633 27.6488 125.439 27.9209C125.246 28.193 125.149 28.5225 125.149 28.9092H122.045C122.045 28.0498 122.274 27.3014 122.732 26.6641C123.198 26.0267 123.821 25.529 124.602 25.1709C125.382 24.8128 126.242 24.6338 127.18 24.6338C128.24 24.6338 129.167 24.8057 129.962 25.1494C130.757 25.486 131.376 25.9837 131.82 26.6426C132.264 27.3014 132.486 28.1178 132.486 29.0918C132.486 29.5859 132.372 30.0658 132.143 30.5312C131.913 30.9896 131.584 31.4049 131.154 31.7773C130.732 32.1426 130.216 32.4362 129.607 32.6582C128.999 32.873 128.315 32.9805 127.556 32.9805H125.407V31.3369ZM125.407 33.6895V32.0889H127.556C128.408 32.0889 129.156 32.1855 129.801 32.3789C130.445 32.5723 130.986 32.8516 131.423 33.2168C131.86 33.5749 132.189 34.001 132.411 34.4951C132.633 34.9821 132.744 35.5228 132.744 36.1172C132.744 36.8477 132.604 37.4993 132.325 38.0723C132.046 38.638 131.652 39.1178 131.144 39.5117C130.642 39.9056 130.055 40.2064 129.382 40.4141C128.709 40.6146 127.975 40.7148 127.18 40.7148C126.521 40.7148 125.873 40.6253 125.235 40.4463C124.605 40.2601 124.032 39.9844 123.517 39.6191C123.008 39.2467 122.6 38.7812 122.292 38.2227C121.991 37.6569 121.841 36.9873 121.841 36.2139H124.945C124.945 36.6149 125.046 36.973 125.246 37.2881C125.447 37.6032 125.722 37.8503 126.073 38.0293C126.431 38.2083 126.829 38.2979 127.266 38.2979C127.76 38.2979 128.182 38.2083 128.533 38.0293C128.891 37.8431 129.163 37.5853 129.35 37.2559C129.543 36.9193 129.64 36.529 129.64 36.085C129.64 35.512 129.536 35.0537 129.328 34.71C129.12 34.359 128.823 34.1012 128.437 33.9365C128.05 33.7718 127.591 33.6895 127.062 33.6895H125.407ZM142.853 24.6982H143.304V27.1689H143.121C142.305 27.1689 141.578 27.2907 140.94 27.5342C140.303 27.7777 139.762 28.125 139.318 28.5762C138.882 29.0202 138.545 29.5573 138.309 30.1875C138.079 30.8177 137.965 31.5231 137.965 32.3037V34.9033C137.965 35.4619 138.019 35.9561 138.126 36.3857C138.241 36.8083 138.402 37.1628 138.609 37.4492C138.824 37.7285 139.075 37.9398 139.361 38.083C139.648 38.2191 139.97 38.2871 140.328 38.2871C140.665 38.2871 140.969 38.2155 141.241 38.0723C141.521 37.929 141.757 37.7285 141.95 37.4707C142.151 37.2057 142.301 36.8978 142.401 36.5469C142.509 36.1888 142.562 35.7985 142.562 35.376C142.562 34.9535 142.509 34.5632 142.401 34.2051C142.301 33.847 142.151 33.5391 141.95 33.2812C141.75 33.0163 141.506 32.8122 141.22 32.6689C140.933 32.5257 140.611 32.4541 140.253 32.4541C139.766 32.4541 139.336 32.5687 138.964 32.7979C138.599 33.0199 138.312 33.3063 138.104 33.6572C137.897 34.0081 137.786 34.377 137.771 34.7637L136.837 34.1621C136.858 33.6107 136.973 33.0879 137.181 32.5938C137.396 32.0996 137.689 31.6628 138.062 31.2832C138.441 30.8965 138.896 30.5957 139.426 30.3809C139.956 30.1589 140.554 30.0479 141.22 30.0479C141.95 30.0479 142.591 30.1875 143.143 30.4668C143.701 30.7461 144.167 31.1292 144.539 31.6162C144.911 32.1032 145.191 32.6654 145.377 33.3027C145.563 33.9401 145.656 34.6204 145.656 35.3438C145.656 36.1029 145.531 36.8083 145.28 37.46C145.037 38.1117 144.682 38.681 144.217 39.168C143.758 39.6549 143.207 40.0345 142.562 40.3066C141.918 40.5788 141.195 40.7148 140.393 40.7148C139.562 40.7148 138.806 40.5645 138.126 40.2637C137.453 39.9557 136.873 39.526 136.386 38.9746C135.899 38.4232 135.523 37.7679 135.258 37.0088C135 36.2497 134.871 35.4189 134.871 34.5166V33.3135C134.871 32.0531 135.054 30.9001 135.419 29.8545C135.791 28.8018 136.325 27.8923 137.02 27.126C137.714 26.3525 138.552 25.7546 139.533 25.332C140.514 24.9095 141.621 24.6982 142.853 24.6982ZM158.203 38.083V40.5H147.504V38.4375L152.563 33.0127C153.072 32.4469 153.473 31.9492 153.767 31.5195C154.06 31.0827 154.271 30.6924 154.4 30.3486C154.536 29.9977 154.604 29.6647 154.604 29.3496C154.604 28.877 154.526 28.4723 154.368 28.1357C154.211 27.792 153.978 27.527 153.67 27.3408C153.369 27.1546 152.997 27.0615 152.553 27.0615C152.08 27.0615 151.672 27.1761 151.328 27.4053C150.992 27.6344 150.734 27.9531 150.555 28.3613C150.383 28.7695 150.297 29.2314 150.297 29.7471H147.192C147.192 28.8161 147.414 27.9639 147.858 27.1904C148.302 26.4098 148.929 25.7904 149.738 25.332C150.548 24.8665 151.507 24.6338 152.617 24.6338C153.713 24.6338 154.637 24.8128 155.389 25.1709C156.148 25.5218 156.721 26.0303 157.107 26.6963C157.501 27.3551 157.698 28.1429 157.698 29.0596C157.698 29.5752 157.616 30.0801 157.451 30.5742C157.286 31.0612 157.05 31.5482 156.742 32.0352C156.441 32.515 156.076 33.002 155.646 33.4961C155.217 33.9902 154.741 34.5023 154.218 35.0322L151.5 38.083H158.203ZM163.306 31.3369H164.96C165.49 31.3369 165.927 31.2474 166.271 31.0684C166.614 30.8822 166.868 30.6243 167.033 30.2949C167.205 29.9583 167.291 29.568 167.291 29.124C167.291 28.723 167.212 28.3685 167.055 28.0605C166.904 27.7454 166.672 27.502 166.356 27.3301C166.041 27.151 165.644 27.0615 165.164 27.0615C164.785 27.0615 164.434 27.1367 164.111 27.2871C163.789 27.4375 163.531 27.6488 163.338 27.9209C163.145 28.193 163.048 28.5225 163.048 28.9092H159.943C159.943 28.0498 160.173 27.3014 160.631 26.6641C161.096 26.0267 161.719 25.529 162.5 25.1709C163.281 24.8128 164.14 24.6338 165.078 24.6338C166.138 24.6338 167.065 24.8057 167.86 25.1494C168.655 25.486 169.275 25.9837 169.719 26.6426C170.163 27.3014 170.385 28.1178 170.385 29.0918C170.385 29.5859 170.27 30.0658 170.041 30.5312C169.812 30.9896 169.482 31.4049 169.053 31.7773C168.63 32.1426 168.115 32.4362 167.506 32.6582C166.897 32.873 166.213 32.9805 165.454 32.9805H163.306V31.3369ZM163.306 33.6895V32.0889H165.454C166.306 32.0889 167.055 32.1855 167.699 32.3789C168.344 32.5723 168.884 32.8516 169.321 33.2168C169.758 33.5749 170.088 34.001 170.31 34.4951C170.532 34.9821 170.643 35.5228 170.643 36.1172C170.643 36.8477 170.503 37.4993 170.224 38.0723C169.944 38.638 169.55 39.1178 169.042 39.5117C168.541 39.9056 167.953 40.2064 167.28 40.4141C166.607 40.6146 165.873 40.7148 165.078 40.7148C164.419 40.7148 163.771 40.6253 163.134 40.4463C162.504 40.2601 161.931 39.9844 161.415 39.6191C160.907 39.2467 160.498 38.7812 160.19 38.2227C159.89 37.6569 159.739 36.9873 159.739 36.2139H162.844C162.844 36.6149 162.944 36.973 163.145 37.2881C163.345 37.6032 163.621 37.8503 163.972 38.0293C164.33 38.2083 164.727 38.2979 165.164 38.2979C165.658 38.2979 166.081 38.2083 166.432 38.0293C166.79 37.8431 167.062 37.5853 167.248 37.2559C167.441 36.9193 167.538 36.529 167.538 36.085C167.538 35.512 167.434 35.0537 167.227 34.71C167.019 34.359 166.722 34.1012 166.335 33.9365C165.948 33.7718 165.49 33.6895 164.96 33.6895H163.306ZM183.469 38.083V40.5H172.77V38.4375L177.829 33.0127C178.338 32.4469 178.739 31.9492 179.032 31.5195C179.326 31.0827 179.537 30.6924 179.666 30.3486C179.802 29.9977 179.87 29.6647 179.87 29.3496C179.87 28.877 179.791 28.4723 179.634 28.1357C179.476 27.792 179.243 27.527 178.936 27.3408C178.635 27.1546 178.262 27.0615 177.818 27.0615C177.346 27.0615 176.938 27.1761 176.594 27.4053C176.257 27.6344 175.999 27.9531 175.82 28.3613C175.648 28.7695 175.562 29.2314 175.562 29.7471H172.458C172.458 28.8161 172.68 27.9639 173.124 27.1904C173.568 26.4098 174.195 25.7904 175.004 25.332C175.813 24.8665 176.773 24.6338 177.883 24.6338C178.979 24.6338 179.902 24.8128 180.654 25.1709C181.413 25.5218 181.986 26.0303 182.373 26.6963C182.767 27.3551 182.964 28.1429 182.964 29.0596C182.964 29.5752 182.882 30.0801 182.717 30.5742C182.552 31.0612 182.316 31.5482 182.008 32.0352C181.707 32.515 181.342 33.002 180.912 33.4961C180.482 33.9902 180.006 34.5023 179.483 35.0322L176.766 38.083H183.469Z" fill="#1F9AD6"/>
</svg>
